
<svg version="1.0" xmlns="http://www.w3.org/2000/svg"
 width="22.000000pt" height="25.000000pt" viewBox="0 0 22.000000 25.000000"
 preserveAspectRatio="xMidYMid meet">

<g transform="translate(0.000000,25.000000) scale(0.100000,-0.100000)"
fill="#000000" stroke="none">
<path d="M10 231 c-5 -11 -10 -60 -10 -110 0 -118 3 -121 124 -121 l92 0 3
125 2 125 -100 0 c-89 0 -101 -2 -111 -19z m160 -51 c0 -5 -25 -10 -55 -10
-30 0 -55 5 -55 10 0 6 25 10 55 10 30 0 55 -4 55 -10z m0 -30 c0 -5 -25 -10
-56 -10 -34 0 -53 4 -49 10 8 13 105 13 105 0z m20 -105 c0 -13 -13 -15 -77
-13 -50 2 -78 7 -81 16 -3 9 17 12 77 12 66 0 81 -3 81 -15z"/>
</g>
</svg>
